<mxfile host="65bd71144e">
    <diagram id="fTqjArgYKByGzAwY-ao9" name="Page-1">
        <mxGraphModel dx="1636" dy="1927" grid="1" gridSize="10" guides="1" tooltips="1" connect="1" arrows="1" fold="1" page="1" pageScale="1" pageWidth="850" pageHeight="1100" math="0" shadow="0">
            <root>
                <mxCell id="0"/>
                <mxCell id="1" parent="0"/>
                <mxCell id="2" value="Lieferservice" style="html=1;whiteSpace=wrap;" vertex="1" parent="1">
                    <mxGeometry x="760" y="-200" width="120" height="50" as="geometry"/>
                </mxCell>
                <mxCell id="9" value="" style="edgeStyle=none;html=1;endArrow=none;endFill=0;" edge="1" parent="1" source="4" target="2">
                    <mxGeometry relative="1" as="geometry"/>
                </mxCell>
                <mxCell id="4" value="service_id" style="ellipse;whiteSpace=wrap;html=1;" vertex="1" parent="1">
                    <mxGeometry x="760" y="-120" width="120" height="50" as="geometry"/>
                </mxCell>
                <mxCell id="10" value="" style="edgeStyle=none;html=1;endArrow=none;endFill=0;" edge="1" parent="1" source="5" target="4">
                    <mxGeometry relative="1" as="geometry"/>
                </mxCell>
                <mxCell id="5" value="srvice_name" style="ellipse;whiteSpace=wrap;html=1;" vertex="1" parent="1">
                    <mxGeometry x="760" y="-40" width="120" height="50" as="geometry"/>
                </mxCell>
                <mxCell id="11" value="" style="edgeStyle=none;shape=connector;rounded=1;html=1;strokeColor=default;align=center;verticalAlign=middle;fontFamily=Helvetica;fontSize=11;fontColor=default;labelBackgroundColor=default;endArrow=none;endFill=0;" edge="1" parent="1" source="6" target="5">
                    <mxGeometry relative="1" as="geometry"/>
                </mxCell>
                <mxCell id="6" value="adresse" style="ellipse;whiteSpace=wrap;html=1;" vertex="1" parent="1">
                    <mxGeometry x="760" y="40" width="120" height="50" as="geometry"/>
                </mxCell>
                <mxCell id="78" value="" style="edgeStyle=none;shape=connector;rounded=1;html=1;strokeColor=default;align=center;verticalAlign=middle;fontFamily=Helvetica;fontSize=11;fontColor=default;labelBackgroundColor=default;endArrow=none;endFill=0;" edge="1" parent="1" target="77">
                    <mxGeometry relative="1" as="geometry">
                        <mxPoint x="500" y="-150" as="sourcePoint"/>
                    </mxGeometry>
                </mxCell>
                <mxCell id="24" value="" style="edgeStyle=none;shape=connector;rounded=1;html=1;strokeColor=default;align=center;verticalAlign=middle;fontFamily=Helvetica;fontSize=11;fontColor=default;labelBackgroundColor=default;endArrow=none;endFill=0;" edge="1" parent="1" source="13">
                    <mxGeometry relative="1" as="geometry">
                        <mxPoint x="500" y="-200" as="targetPoint"/>
                    </mxGeometry>
                </mxCell>
                <mxCell id="13" value="katalog_id" style="ellipse;whiteSpace=wrap;html=1;" vertex="1" parent="1">
                    <mxGeometry x="440" y="-290" width="120" height="50" as="geometry"/>
                </mxCell>
                <mxCell id="25" value="" style="edgeStyle=none;shape=connector;rounded=1;html=1;strokeColor=default;align=center;verticalAlign=middle;fontFamily=Helvetica;fontSize=11;fontColor=default;labelBackgroundColor=default;endArrow=none;endFill=0;" edge="1" parent="1" source="14" target="13">
                    <mxGeometry relative="1" as="geometry"/>
                </mxCell>
                <mxCell id="14" value="katalog_name" style="ellipse;whiteSpace=wrap;html=1;" vertex="1" parent="1">
                    <mxGeometry x="440" y="-370" width="120" height="50" as="geometry"/>
                </mxCell>
                <mxCell id="79" value="" style="edgeStyle=none;shape=connector;rounded=1;html=1;strokeColor=default;align=center;verticalAlign=middle;fontFamily=Helvetica;fontSize=11;fontColor=default;labelBackgroundColor=default;endArrow=none;endFill=0;" edge="1" parent="1" source="17" target="77">
                    <mxGeometry relative="1" as="geometry"/>
                </mxCell>
                <mxCell id="17" value="Artikel" style="html=1;whiteSpace=wrap;" vertex="1" parent="1">
                    <mxGeometry x="440" y="200" width="120" height="50" as="geometry"/>
                </mxCell>
                <mxCell id="18" value="" style="edgeStyle=none;html=1;endArrow=none;endFill=0;" edge="1" source="19" target="17" parent="1">
                    <mxGeometry relative="1" as="geometry"/>
                </mxCell>
                <mxCell id="19" value="artikelnummer" style="ellipse;whiteSpace=wrap;html=1;" vertex="1" parent="1">
                    <mxGeometry x="440" y="280" width="120" height="50" as="geometry"/>
                </mxCell>
                <mxCell id="20" value="" style="edgeStyle=none;html=1;endArrow=none;endFill=0;" edge="1" source="21" target="19" parent="1">
                    <mxGeometry relative="1" as="geometry"/>
                </mxCell>
                <mxCell id="21" value="bezeichnung" style="ellipse;whiteSpace=wrap;html=1;" vertex="1" parent="1">
                    <mxGeometry x="440" y="360" width="120" height="50" as="geometry"/>
                </mxCell>
                <mxCell id="22" value="" style="edgeStyle=none;shape=connector;rounded=1;html=1;strokeColor=default;align=center;verticalAlign=middle;fontFamily=Helvetica;fontSize=11;fontColor=default;labelBackgroundColor=default;endArrow=none;endFill=0;" edge="1" source="23" target="21" parent="1">
                    <mxGeometry relative="1" as="geometry"/>
                </mxCell>
                <mxCell id="23" value="preis" style="ellipse;whiteSpace=wrap;html=1;" vertex="1" parent="1">
                    <mxGeometry x="440" y="440" width="120" height="50" as="geometry"/>
                </mxCell>
                <mxCell id="27" value="" style="edgeStyle=none;shape=connector;rounded=1;html=1;strokeColor=default;align=center;verticalAlign=middle;fontFamily=Helvetica;fontSize=11;fontColor=default;labelBackgroundColor=default;endArrow=none;endFill=0;" edge="1" parent="1" source="26" target="23">
                    <mxGeometry relative="1" as="geometry"/>
                </mxCell>
                <mxCell id="26" value="beschreibung" style="ellipse;whiteSpace=wrap;html=1;" vertex="1" parent="1">
                    <mxGeometry x="440" y="520" width="120" height="50" as="geometry"/>
                </mxCell>
                <mxCell id="28" value="Bild" style="html=1;whiteSpace=wrap;" vertex="1" parent="1">
                    <mxGeometry x="760" y="200" width="120" height="50" as="geometry"/>
                </mxCell>
                <mxCell id="29" value="" style="edgeStyle=none;html=1;endArrow=none;endFill=0;" edge="1" source="30" target="28" parent="1">
                    <mxGeometry relative="1" as="geometry"/>
                </mxCell>
                <mxCell id="30" value="bild_id" style="ellipse;whiteSpace=wrap;html=1;" vertex="1" parent="1">
                    <mxGeometry x="760" y="280" width="120" height="50" as="geometry"/>
                </mxCell>
                <mxCell id="31" value="" style="edgeStyle=none;html=1;endArrow=none;endFill=0;" edge="1" source="32" target="30" parent="1">
                    <mxGeometry relative="1" as="geometry"/>
                </mxCell>
                <mxCell id="32" value="dateipfad" style="ellipse;whiteSpace=wrap;html=1;" vertex="1" parent="1">
                    <mxGeometry x="760" y="360" width="120" height="50" as="geometry"/>
                </mxCell>
                <mxCell id="33" value="" style="edgeStyle=none;shape=connector;rounded=1;html=1;strokeColor=default;align=center;verticalAlign=middle;fontFamily=Helvetica;fontSize=11;fontColor=default;labelBackgroundColor=default;endArrow=none;endFill=0;" edge="1" source="34" target="32" parent="1">
                    <mxGeometry relative="1" as="geometry"/>
                </mxCell>
                <mxCell id="34" value="titel" style="ellipse;whiteSpace=wrap;html=1;" vertex="1" parent="1">
                    <mxGeometry x="760" y="440" width="120" height="50" as="geometry"/>
                </mxCell>
                <mxCell id="63" style="edgeStyle=none;shape=connector;rounded=1;html=1;entryX=0;entryY=0.5;entryDx=0;entryDy=0;strokeColor=default;align=center;verticalAlign=middle;fontFamily=Helvetica;fontSize=11;fontColor=default;labelBackgroundColor=default;endArrow=block;endFill=0;" edge="1" parent="1" source="69" target="17">
                    <mxGeometry relative="1" as="geometry"/>
                </mxCell>
                <mxCell id="37" value="Lebensmittel" style="html=1;whiteSpace=wrap;" vertex="1" parent="1">
                    <mxGeometry x="200" y="200" width="120" height="50" as="geometry"/>
                </mxCell>
                <mxCell id="38" value="" style="edgeStyle=none;html=1;endArrow=none;endFill=0;" edge="1" source="39" target="37" parent="1">
                    <mxGeometry relative="1" as="geometry"/>
                </mxCell>
                <mxCell id="39" value="gewicht" style="ellipse;whiteSpace=wrap;html=1;" vertex="1" parent="1">
                    <mxGeometry x="200" y="280" width="120" height="50" as="geometry"/>
                </mxCell>
                <mxCell id="40" value="" style="edgeStyle=none;html=1;endArrow=none;endFill=0;" edge="1" source="41" target="39" parent="1">
                    <mxGeometry relative="1" as="geometry"/>
                </mxCell>
                <mxCell id="41" value="zusammensetzung" style="ellipse;whiteSpace=wrap;html=1;" vertex="1" parent="1">
                    <mxGeometry x="200" y="360" width="120" height="50" as="geometry"/>
                </mxCell>
                <mxCell id="70" value="" style="edgeStyle=orthogonalEdgeStyle;shape=connector;rounded=0;html=1;strokeColor=default;align=center;verticalAlign=middle;fontFamily=Helvetica;fontSize=11;fontColor=default;labelBackgroundColor=default;endArrow=none;endFill=0;elbow=vertical;curved=0;" edge="1" parent="1" source="46" target="69">
                    <mxGeometry relative="1" as="geometry"/>
                </mxCell>
                <mxCell id="46" value="Haushaltsware" style="html=1;whiteSpace=wrap;" vertex="1" parent="1">
                    <mxGeometry x="200" y="70" width="120" height="50" as="geometry"/>
                </mxCell>
                <mxCell id="47" value="" style="edgeStyle=none;html=1;endArrow=none;endFill=0;" edge="1" source="48" target="46" parent="1">
                    <mxGeometry relative="1" as="geometry"/>
                </mxCell>
                <mxCell id="48" value="garantie_bis" style="ellipse;whiteSpace=wrap;html=1;" vertex="1" parent="1">
                    <mxGeometry x="40" y="70" width="120" height="50" as="geometry"/>
                </mxCell>
                <mxCell id="49" value="" style="edgeStyle=none;html=1;endArrow=none;endFill=0;" edge="1" source="50" target="48" parent="1">
                    <mxGeometry relative="1" as="geometry"/>
                </mxCell>
                <mxCell id="50" value="farbe" style="ellipse;whiteSpace=wrap;html=1;" vertex="1" parent="1">
                    <mxGeometry x="-120" y="70" width="120" height="50" as="geometry"/>
                </mxCell>
                <mxCell id="57" value="" style="edgeStyle=none;shape=connector;rounded=1;html=1;strokeColor=default;align=center;verticalAlign=middle;fontFamily=Helvetica;fontSize=11;fontColor=default;labelBackgroundColor=default;endArrow=none;endFill=0;" edge="1" parent="1" source="56" target="17">
                    <mxGeometry relative="1" as="geometry"/>
                </mxCell>
                <mxCell id="58" value="" style="edgeStyle=none;shape=connector;rounded=1;html=1;strokeColor=default;align=center;verticalAlign=middle;fontFamily=Helvetica;fontSize=11;fontColor=default;labelBackgroundColor=default;endArrow=none;endFill=0;" edge="1" parent="1" source="56" target="28">
                    <mxGeometry relative="1" as="geometry"/>
                </mxCell>
                <mxCell id="56" value="enthält" style="rhombus;whiteSpace=wrap;html=1;fontFamily=Helvetica;fontSize=11;fontColor=default;labelBackgroundColor=default;" vertex="1" parent="1">
                    <mxGeometry x="610" y="200" width="100" height="50" as="geometry"/>
                </mxCell>
                <mxCell id="59" value="1" style="text;html=1;align=center;verticalAlign=middle;resizable=0;points=[];autosize=1;strokeColor=none;fillColor=none;fontFamily=Helvetica;fontSize=11;fontColor=default;labelBackgroundColor=default;" vertex="1" parent="1">
                    <mxGeometry x="560" y="190" width="30" height="30" as="geometry"/>
                </mxCell>
                <mxCell id="60" value="n" style="text;html=1;align=center;verticalAlign=middle;resizable=0;points=[];autosize=1;strokeColor=none;fillColor=none;fontFamily=Helvetica;fontSize=11;fontColor=default;labelBackgroundColor=default;" vertex="1" parent="1">
                    <mxGeometry x="730" y="190" width="30" height="30" as="geometry"/>
                </mxCell>
                <mxCell id="71" value="" style="edgeStyle=none;shape=connector;rounded=1;html=1;entryDx=0;entryDy=0;strokeColor=default;align=center;verticalAlign=middle;fontFamily=Helvetica;fontSize=11;fontColor=default;labelBackgroundColor=default;endArrow=none;endFill=0;" edge="1" parent="1" source="37" target="69">
                    <mxGeometry relative="1" as="geometry">
                        <mxPoint x="320" y="225" as="sourcePoint"/>
                        <mxPoint x="440" y="225" as="targetPoint"/>
                    </mxGeometry>
                </mxCell>
                <mxCell id="69" value="" style="shape=waypoint;sketch=0;size=6;pointerEvents=1;points=[];fillColor=default;resizable=0;rotatable=0;perimeter=centerPerimeter;snapToPoint=1;" vertex="1" parent="1">
                    <mxGeometry x="370" y="215" width="20" height="20" as="geometry"/>
                </mxCell>
                <mxCell id="72" value="ist ein" style="text;html=1;align=center;verticalAlign=middle;resizable=0;points=[];autosize=1;strokeColor=none;fillColor=none;fontFamily=Helvetica;fontSize=11;fontColor=default;labelBackgroundColor=default;" vertex="1" parent="1">
                    <mxGeometry x="375" y="140" width="50" height="30" as="geometry"/>
                </mxCell>
                <mxCell id="73" value="ist ein" style="text;html=1;align=center;verticalAlign=middle;resizable=0;points=[];autosize=1;strokeColor=none;fillColor=none;fontFamily=Helvetica;fontSize=11;fontColor=default;labelBackgroundColor=default;" vertex="1" parent="1">
                    <mxGeometry x="320" y="200" width="50" height="30" as="geometry"/>
                </mxCell>
                <mxCell id="74" value="(vererbung / aggregation)" style="text;html=1;align=center;verticalAlign=middle;resizable=0;points=[];autosize=1;strokeColor=none;fillColor=none;fontFamily=Helvetica;fontSize=11;fontColor=default;labelBackgroundColor=default;" vertex="1" parent="1">
                    <mxGeometry x="220" y="140" width="150" height="30" as="geometry"/>
                </mxCell>
                <mxCell id="77" value="besteht aus" style="rhombus;whiteSpace=wrap;html=1;fontFamily=Helvetica;fontSize=11;fontColor=default;labelBackgroundColor=default;" vertex="1" parent="1">
                    <mxGeometry x="450" width="100" height="50" as="geometry"/>
                </mxCell>
                <mxCell id="80" value="n" style="text;html=1;align=center;verticalAlign=middle;resizable=0;points=[];autosize=1;strokeColor=none;fillColor=none;fontFamily=Helvetica;fontSize=11;fontColor=default;labelBackgroundColor=default;" vertex="1" parent="1">
                    <mxGeometry x="500" y="-150" width="30" height="30" as="geometry"/>
                </mxCell>
                <mxCell id="81" value="m" style="text;html=1;align=center;verticalAlign=middle;resizable=0;points=[];autosize=1;strokeColor=none;fillColor=none;fontFamily=Helvetica;fontSize=11;fontColor=default;labelBackgroundColor=default;" vertex="1" parent="1">
                    <mxGeometry x="500" y="170" width="30" height="30" as="geometry"/>
                </mxCell>
                <mxCell id="83" value="Katalog" style="shape=ext;margin=3;double=1;whiteSpace=wrap;html=1;align=center;fontFamily=Helvetica;fontSize=11;fontColor=default;labelBackgroundColor=default;" vertex="1" parent="1">
                    <mxGeometry x="440" y="-200" width="120" height="50" as="geometry"/>
                </mxCell>
                <mxCell id="86" value="" style="edgeStyle=none;shape=connector;rounded=1;html=1;strokeColor=default;align=center;verticalAlign=middle;fontFamily=Helvetica;fontSize=11;fontColor=default;labelBackgroundColor=default;endArrow=none;endFill=0;" edge="1" parent="1" source="85" target="83">
                    <mxGeometry relative="1" as="geometry"/>
                </mxCell>
                <mxCell id="87" value="" style="edgeStyle=none;shape=connector;rounded=1;html=1;strokeColor=default;align=center;verticalAlign=middle;fontFamily=Helvetica;fontSize=11;fontColor=default;labelBackgroundColor=default;endArrow=none;endFill=0;" edge="1" parent="1" source="85" target="2">
                    <mxGeometry relative="1" as="geometry"/>
                </mxCell>
                <mxCell id="85" value="bietet an" style="shape=rhombus;double=1;perimeter=rhombusPerimeter;whiteSpace=wrap;html=1;align=center;fontFamily=Helvetica;fontSize=11;fontColor=default;labelBackgroundColor=default;" vertex="1" parent="1">
                    <mxGeometry x="600" y="-200" width="120" height="50" as="geometry"/>
                </mxCell>
                <mxCell id="88" value="n" style="text;html=1;align=center;verticalAlign=middle;resizable=0;points=[];autosize=1;strokeColor=none;fillColor=none;fontFamily=Helvetica;fontSize=11;fontColor=default;labelBackgroundColor=default;" vertex="1" parent="1">
                    <mxGeometry x="560" y="-210" width="30" height="30" as="geometry"/>
                </mxCell>
                <mxCell id="89" value="1" style="text;html=1;align=center;verticalAlign=middle;resizable=0;points=[];autosize=1;strokeColor=none;fillColor=none;fontFamily=Helvetica;fontSize=11;fontColor=default;labelBackgroundColor=default;" vertex="1" parent="1">
                    <mxGeometry x="730" y="-210" width="30" height="30" as="geometry"/>
                </mxCell>
            </root>
        </mxGraphModel>
    </diagram>
</mxfile>